<svg xmlns="http://www.w3.org/2000/svg" viewBox="0 0 432 124" id="specify-logo"><g fill="none" fill-rule="evenodd"><path d="M156 67.714l9.69-1.973c.41 6.249 4.599 10.442 12.482 10.442 7.965 0 12.564-2.878 12.564-8.14 0-14.224-32.108-3.042-32.108-26.392 0-9.291 7.883-17.267 20.858-17.267 12.892 0 20.119 7.4 21.104 17.431l-9.69 1.809c-.082-5.756-3.941-10.278-11.414-10.278-6.816 0-11.004 2.878-11.004 8.058 0 12.826 32.355 2.878 32.355 26.228 0 10.606-9.198 17.513-23.158 17.513-14.535 0-20.694-8.551-21.679-17.43zm62.656 10.689v22.693h-9.772V41.322h9.033v6.084c2.792-4.358 7.802-7.071 14.371-7.071 12.646 0 19.79 10.113 19.79 22.364 0 12.168-7.144 22.281-19.79 22.281-6.57 0-11.25-2.877-13.632-6.577zm-.328-15.704c0 7.646 4.516 13.648 11.99 13.648 7.39 0 11.988-6.002 11.988-13.648 0-7.893-4.598-13.895-11.989-13.895-7.473 0-11.99 6.002-11.99 13.895zm69.8 7.317l8.787 2.303c-3.038 7.646-10.1 12.661-19.38 12.661-12.892 0-21.268-9.62-21.268-22.363 0-12.416 8.54-22.282 21.186-22.282s20.94 9.62 20.94 22.117c0 1.562-.082 3.042-.082 3.042h-32.437c.74 6.742 5.092 11.1 11.908 11.1 4.68 0 8.54-2.302 10.347-6.578zM277.454 48.31c-6.323 0-10.429 4.111-11.414 9.949h22.664c-.82-5.92-4.927-9.949-11.25-9.949zm46.233 28.037c5.255 0 9.197-3.206 10.347-7.81l9.361 2.302c-2.217 7.317-8.212 14.141-19.626 14.141-12.564 0-21.269-9.948-21.269-22.281 0-12.415 8.705-22.364 21.269-22.364 11.414 0 17.409 6.824 19.626 14.142l-9.361 2.302c-1.15-4.604-5.092-7.81-10.347-7.81-6.98 0-11.415 5.672-11.415 13.73 0 7.975 4.435 13.648 11.415 13.648zm30.958-42.178c-3.613 0-6.158-2.467-6.158-6.003 0-3.617 2.545-6.166 6.158-6.166 3.532 0 6.077 2.549 6.077 6.166 0 3.536-2.545 6.003-6.077 6.003zm-4.927 49.825V41.322h9.772v42.672h-9.772zm21.269-42.672V36.8c0-10.031 5.666-14.471 13.796-14.471 1.889 0 3.285.247 3.285.247v8.633s-.493-.165-1.807-.165c-3.942 0-5.502 1.645-5.502 6.331v3.947h7.555v7.81h-7.555v34.862h-9.772V49.133h-6.816v-7.811h6.816zm34.243 42.26l-17.162-42.26h10.429l11.578 30.914 11.743-30.914H432l-18.887 46.454C408.76 98.546 403.669 102 395.868 102c-1.642 0-2.792-.164-2.792-.164V93.12s1.15.082 2.463.082c3.285 0 6.241-1.068 8.705-7.235l.985-2.384z" fill="#141414"/><path d="M61.991 62l20.747 11.937-20.747 11.959-20.658-11.948L61.991 62zm41.342-23.93L124 50.007v23.958l-20.667-11.9V38.07zm-62-35.895V26.17l-20.666 11.9V14.112L41.333 2.175zM20.667 85.93L0 73.993V50.035l20.667 11.9V85.93zm61.99-59.825L62 14.157 82.658 2.21l20.747 11.958-20.747 11.937zm-41.332 71.79l20.747 11.937-20.747 11.958-20.658-11.947 20.658-11.948zm41.342 23.93V97.83l20.666-11.9v23.958l-20.666 11.937z" fill="#624DE3"/><path fill="#AB9FF4" d="M62 38.07v23.995l20.667 11.9V50.007z"/><path fill="#8D7CF6" d="M62 38.07v23.995l-20.667 11.9V50.007z"/><g><path d="M103.325 62l20.747 11.937-20.747 11.959-20.658-11.948L103.325 62zm-82.667 0L0 50.052l20.658-11.948 20.747 11.959L20.658 62zm62.009-11.965V26.041l20.666-11.9v23.957L82.667 50.035zm-41.334 23.93v23.994l-20.666 11.9V85.903l20.666-11.937zm41.334 47.86L62 109.888V85.93l20.667 11.9v23.995zM41.333 2.175L62 14.112V38.07l-20.667-11.9V2.175z" fill="#AB9FF4"/></g></g></svg>