<svg width="200" height="46" viewBox="0 0 200 46" fill="none" xmlns="http://www.w3.org/2000/svg">
<path d="M0 6.73484C0 6.11853 0.223509 5.59154 0.666056 5.15387C1.1086 4.72067 1.64055 4.50183 2.25744 4.50183C2.87432 4.50183 3.41074 4.72067 3.86223 5.15387C4.31372 5.59154 4.5417 6.11406 4.5417 6.73484C4.5417 7.36902 4.32266 7.90047 3.88905 8.32474C3.45097 8.75348 2.91008 8.96785 2.26191 8.96785C1.62714 8.96785 1.09072 8.75348 0.657115 8.32474C0.219038 7.90047 0 7.36902 0 6.73484ZM0.737578 36.0275V14.9568H3.75942V36.0275H0.737578Z" fill="#3A4042"/>
<path d="M10.5273 36.0274V14.9567H13.3078V18.2125C14.1661 16.8682 15.2121 15.8589 16.4593 15.1845C17.7064 14.5101 19.1324 14.1752 20.7506 14.1752C23.1422 14.1752 25.0062 14.8406 26.3383 16.1715C27.6705 17.5024 28.3365 19.3558 28.3365 21.7317V36.0319H25.3638V23.0313C25.3638 20.9233 24.9258 19.3602 24.0451 18.3375C23.1645 17.3148 21.8056 16.8057 19.9683 16.8057C17.7333 16.8057 16.0882 17.4666 15.0333 18.7886C13.9783 20.1105 13.4508 22.1917 13.4508 25.0231V36.0229H10.5273V36.0274Z" fill="#3A4042"/>
<path d="M83.3366 14.9567V25.4786C83.3366 28.6763 83.7925 30.9361 84.7045 32.2491C85.6164 33.5621 87.1586 34.2231 89.3311 34.2231C91.4857 34.2231 93.0324 33.5576 93.9667 32.2268C94.9009 30.8959 95.3703 28.6495 95.3703 25.4831V14.9567H98.2714V26.9747C98.2714 30.2528 97.5204 32.7359 96.014 34.4196C94.5075 36.1077 92.2948 36.9473 89.3802 36.9473C86.4478 36.9473 84.2217 36.1033 82.6973 34.4196C81.1775 32.7314 80.4131 30.2528 80.4131 26.9747V14.9567H83.3366Z" fill="#3A4042"/>
<path d="M122.97 25.5724H106.206C106.287 28.2967 106.966 30.4359 108.249 31.9856C109.532 33.5398 111.253 34.3124 113.408 34.3124C114.959 34.3124 116.322 33.8926 117.498 33.053C118.669 32.2134 119.644 30.945 120.422 29.2524L123.108 30.7262C122.031 32.8654 120.712 34.4374 119.148 35.4423C117.588 36.4472 115.674 36.9518 113.403 36.9518C110.315 36.9518 107.811 35.9202 105.902 33.8524C103.994 31.7846 103.037 29.0738 103.037 25.7153C103.037 22.2631 103.985 19.4763 105.88 17.3549C107.775 15.2336 110.252 14.1707 113.31 14.1707C116.224 14.1707 118.562 15.1487 120.323 17.1048C122.085 19.0609 122.961 21.6691 122.961 24.9293V25.5724H122.97ZM119.496 23.0804C119.353 21.1466 118.71 19.6505 117.57 18.592C116.43 17.5336 114.883 17.0021 112.934 17.0021C111.159 17.0021 109.671 17.5559 108.477 18.6635C107.279 19.771 106.586 21.2448 106.399 23.0804H119.496Z" fill="#3A4042"/>
<path d="M125.438 32.2714L128.218 30.6815C128.678 31.8516 129.344 32.7358 130.216 33.3298C131.088 33.9238 132.156 34.223 133.426 34.223C134.664 34.223 135.643 33.9104 136.376 33.2851C137.105 32.6599 137.471 31.8248 137.471 30.7797C137.471 29.163 136.036 27.7964 133.166 26.671C132.867 26.5593 132.626 26.4655 132.451 26.3851C130.23 25.5143 128.678 24.6166 127.789 23.6877C126.899 22.7632 126.457 21.6154 126.457 20.2533C126.457 18.4624 127.091 16.9931 128.361 15.8453C129.631 14.6976 131.271 14.1215 133.283 14.1215C134.995 14.1215 136.452 14.4921 137.659 15.238C138.861 15.9838 139.742 17.0422 140.296 18.4222L137.61 19.9184C137.279 18.9224 136.72 18.1587 135.947 17.6362C135.169 17.1137 134.217 16.8502 133.095 16.8502C132.08 16.8502 131.244 17.1494 130.587 17.7434C129.93 18.3374 129.599 19.0787 129.599 19.963C129.599 20.8339 129.926 21.5529 130.574 22.1246C131.222 22.6962 132.572 23.3215 134.615 24.0003C136.93 24.8086 138.486 25.6884 139.286 26.6352C140.086 27.5865 140.489 28.8995 140.489 30.5787C140.489 32.5125 139.8 34.0533 138.419 35.21C137.038 36.3667 135.187 36.9428 132.854 36.9428C131.061 36.9428 129.519 36.5364 128.227 35.7191C126.935 34.9108 126.005 33.7585 125.438 32.2714Z" fill="#3A4042"/>
<path d="M145.831 17.4488H141.955V14.9523H145.831V6.31055H148.71V14.9568H152.943V17.4533H148.71V36.0274H145.831V17.4488Z" fill="#3A4042"/>
<path d="M156.765 34.031C156.765 33.3522 156.997 32.7761 157.466 32.3071C157.936 31.8427 158.508 31.606 159.192 31.606C159.871 31.606 160.448 31.8382 160.917 32.3071C161.382 32.7761 161.619 33.3477 161.619 34.031C161.619 34.7143 161.387 35.286 160.917 35.7549C160.448 36.2238 159.876 36.4561 159.192 36.4561C158.508 36.4561 157.936 36.2238 157.466 35.7549C156.997 35.286 156.765 34.7098 156.765 34.031Z" fill="#3A4042"/>
<path d="M168.337 6.73484C168.337 6.11853 168.56 5.59154 169.003 5.15387C169.446 4.72067 169.977 4.50183 170.594 4.50183C171.211 4.50183 171.748 4.72067 172.199 5.15387C172.651 5.59154 172.879 6.11406 172.879 6.73484C172.879 7.36902 172.66 7.90047 172.226 8.32474C171.788 8.75348 171.247 8.96785 170.599 8.96785C169.964 8.96785 169.428 8.75348 168.994 8.32474C168.556 7.90047 168.337 7.36902 168.337 6.73484ZM169.074 36.0275V14.9568H172.096V36.0275H169.074Z" fill="#A6D84F"/>
<path d="M188.449 36.9518C186.943 36.9518 185.499 36.6526 184.122 36.0631C182.741 35.4691 181.489 34.6161 180.367 33.5085C179.303 32.4635 178.499 31.2621 177.94 29.9C177.386 28.5378 177.108 27.0819 177.108 25.5277C177.108 23.9914 177.394 22.5355 177.962 21.1555C178.534 19.7755 179.348 18.5608 180.412 17.4978C181.489 16.4215 182.718 15.5953 184.095 15.0281C185.477 14.4565 186.925 14.1707 188.445 14.1707C189.996 14.1707 191.476 14.4565 192.879 15.0281C194.283 15.5998 195.53 16.4215 196.625 17.4978C197.72 18.5741 198.556 19.8023 199.133 21.1778C199.71 22.5578 200 24.0048 200 25.5233C200 27.0417 199.714 28.4887 199.142 29.8598C198.57 31.2308 197.747 32.4456 196.67 33.5041C195.561 34.6116 194.296 35.4646 192.879 36.0586C191.462 36.6526 189.982 36.9518 188.449 36.9518ZM188.543 34.2186C190.859 34.2186 192.817 33.3835 194.426 31.7132C196.035 30.0429 196.84 27.9974 196.84 25.5724C196.84 23.1161 196.04 21.0573 194.439 19.3959C192.839 17.7345 190.872 16.9039 188.543 16.9039C186.228 16.9039 184.27 17.7345 182.669 19.3959C181.069 21.0573 180.269 23.1161 180.269 25.5724C180.269 27.993 181.069 30.0429 182.669 31.7132C184.27 33.3835 186.228 34.2186 188.543 34.2186Z" fill="#A6D84F"/>
<path d="M54.6385 23.9567C57.2629 23.9567 59.3903 21.8863 59.3903 19.3324C59.3903 16.7785 57.2629 14.7081 54.6385 14.7081C52.0142 14.7081 49.8867 16.7785 49.8867 19.3324C49.8867 21.8863 52.0142 23.9567 54.6385 23.9567Z" fill="#A6D84F"/>
<path d="M65.0952 24.5177C67.2766 24.5177 69.0468 22.795 69.0468 20.6721C69.0468 18.5492 67.2766 16.8265 65.0952 16.8265C62.9137 16.8265 61.1436 18.5492 61.1436 20.6721C61.1436 22.795 62.9137 24.5177 65.0952 24.5177Z" fill="#A6D84F"/>
<path d="M44.1069 24.5177C46.2884 24.5177 48.0585 22.795 48.0585 20.6721C48.0585 18.5492 46.2884 16.8265 44.1069 16.8265C41.9255 16.8265 40.1553 18.5492 40.1553 20.6721C40.1508 22.795 41.921 24.5177 44.1069 24.5177Z" fill="#A6D84F"/>
<path d="M77.5845 45.9991C72.7165 43.489 71.8358 41.0964 71.362 37.9904C74.8175 33.9577 76.9184 28.7027 76.9184 22.9517C76.914 10.2969 66.7622 0 54.2815 0C41.8008 0 31.6445 10.2969 31.6445 22.956C31.6445 35.6152 41.8008 45.9121 54.2815 45.9121C58.2778 45.9121 62.0328 44.855 65.2915 43.0018C68.1435 45.2944 70.4769 46.0295 77.5845 45.9991ZM54.2815 3.11475C64.9965 3.11475 73.7178 12.0153 73.7178 22.9517C73.7178 26.4623 72.8148 29.7598 71.2458 32.6222V31.7391C71.2458 28.4373 68.4966 25.7619 65.1038 25.7619C63.6823 25.7619 62.3814 26.2361 61.3399 27.0235C62.6809 28.533 63.4945 30.4993 63.4945 32.6483V40.4265C63.0207 40.6875 62.5289 40.9311 62.0328 41.153V32.644C62.0328 28.6722 58.7248 25.4574 54.648 25.4574C50.5668 25.4574 47.2633 28.6766 47.2633 32.644V41.4444C46.7671 41.2487 46.2754 41.0312 45.8016 40.7962V32.644C45.8016 30.5124 46.6017 28.5591 47.9294 27.0539C46.8833 26.2448 45.5602 25.7619 44.1208 25.7619C40.7279 25.7619 37.9788 28.4373 37.9788 31.7391V33.7098C36.0119 30.6081 34.8631 26.9191 34.8631 22.956C34.8452 12.0153 43.562 3.11475 54.2815 3.11475Z" fill="#A6D84F"/>
</svg>
